<svg width="588" height="96" viewBox="0 0 588 96" fill="none" xmlns="http://www.w3.org/2000/svg">
<path d="M0.545441 17.1363V0.909058H77V17.1363H48.5V94H29.0454V17.1363H0.545441Z" fill="white"/>
<path d="M110.92 95.3636C103.739 95.3636 97.5568 93.9091 92.375 91C87.2235 88.0606 83.2538 83.9091 80.4659 78.5454C77.678 73.1515 76.2841 66.7727 76.2841 59.4091C76.2841 52.2272 77.678 45.9242 80.4659 40.5C83.2538 35.0757 87.178 30.8485 92.2386 27.8181C97.3295 24.7878 103.299 23.2727 110.148 23.2727C114.754 23.2727 119.042 24.0151 123.011 25.5C127.011 26.9545 130.496 29.1515 133.466 32.0909C136.466 35.0303 138.799 38.7272 140.466 43.1818C142.133 47.606 142.966 52.7878 142.966 58.7272V64.0454H84.0114V52.0454H124.739C124.739 49.2575 124.133 46.7878 122.92 44.6363C121.708 42.4848 120.027 40.803 117.875 39.5909C115.754 38.3485 113.284 37.7272 110.466 37.7272C107.527 37.7272 104.92 38.4091 102.648 39.7727C100.405 41.106 98.6477 42.9091 97.375 45.1818C96.1023 47.4242 95.4507 49.9242 95.4204 52.6818V64.0909C95.4204 67.5454 96.0568 70.5303 97.3295 73.0454C98.6326 75.5606 100.466 77.5 102.83 78.8636C105.193 80.2272 107.996 80.9091 111.239 80.9091C113.39 80.9091 115.36 80.606 117.148 80C118.936 79.3939 120.466 78.4848 121.739 77.2727C123.011 76.0606 123.981 74.5757 124.648 72.8182L142.557 74C141.648 78.303 139.784 82.0606 136.966 85.2727C134.178 88.4545 130.572 90.9394 126.148 92.7272C121.754 94.4848 116.678 95.3636 110.92 95.3636Z" fill="white"/>
<path d="M155.602 94V24.1818H174.375V36.3636H175.102C176.375 32.0303 178.511 28.7575 181.511 26.5454C184.511 24.303 187.966 23.1818 191.875 23.1818C192.845 23.1818 193.89 23.2424 195.011 23.3636C196.133 23.4848 197.117 23.6515 197.966 23.8636V41.0454C197.057 40.7727 195.799 40.5303 194.193 40.3181C192.587 40.106 191.117 40 189.784 40C186.936 40 184.39 40.6212 182.148 41.8636C179.936 43.0757 178.178 44.7727 176.875 46.9545C175.602 49.1363 174.966 51.6515 174.966 54.5V94H155.602Z" fill="white"/>
<path d="M207.977 94V24.1818H226.75V36.3636H227.477C228.75 32.0303 230.886 28.7575 233.886 26.5454C236.886 24.303 240.341 23.1818 244.25 23.1818C245.22 23.1818 246.265 23.2424 247.386 23.3636C248.508 23.4848 249.492 23.6515 250.341 23.8636V41.0454C249.432 40.7727 248.174 40.5303 246.568 40.3181C244.962 40.106 243.492 40 242.159 40C239.311 40 236.765 40.6212 234.523 41.8636C232.311 43.0757 230.553 44.7727 229.25 46.9545C227.977 49.1363 227.341 51.6515 227.341 54.5V94H207.977Z" fill="white"/>
<path d="M278.261 95.3182C273.807 95.3182 269.837 94.5454 266.352 93C262.867 91.4242 260.11 89.106 258.08 86.0454C256.08 82.9545 255.08 79.106 255.08 74.5C255.08 70.6212 255.792 67.3636 257.216 64.7272C258.64 62.0909 260.58 59.9697 263.034 58.3636C265.489 56.7575 268.276 55.5454 271.398 54.7272C274.549 53.9091 277.852 53.3333 281.307 53C285.367 52.5757 288.64 52.1818 291.125 51.8181C293.61 51.4242 295.413 50.8485 296.534 50.0909C297.655 49.3333 298.216 48.2121 298.216 46.7272V46.4545C298.216 43.5757 297.307 41.3485 295.489 39.7727C293.701 38.1969 291.155 37.4091 287.852 37.4091C284.367 37.4091 281.595 38.1818 279.534 39.7272C277.473 41.2424 276.11 43.1515 275.443 45.4545L257.534 44C258.443 39.7575 260.231 36.0909 262.898 33C265.564 29.8788 269.004 27.4848 273.216 25.8181C277.458 24.1212 282.367 23.2727 287.943 23.2727C291.822 23.2727 295.534 23.7272 299.08 24.6363C302.655 25.5454 305.822 26.9545 308.58 28.8636C311.367 30.7727 313.564 33.2272 315.17 36.2272C316.776 39.1969 317.58 42.7575 317.58 46.9091V94H299.216V84.3182H298.67C297.549 86.5 296.049 88.4242 294.17 90.0909C292.292 91.7272 290.034 93.0151 287.398 93.9545C284.761 94.8636 281.716 95.3182 278.261 95.3182ZM283.807 81.9545C286.655 81.9545 289.17 81.3939 291.352 80.2727C293.534 79.1212 295.246 77.5757 296.489 75.6363C297.731 73.6969 298.352 71.5 298.352 69.0454V61.6363C297.746 62.0303 296.913 62.3939 295.852 62.7272C294.822 63.0303 293.655 63.3182 292.352 63.5909C291.049 63.8333 289.746 64.0606 288.443 64.2727C287.14 64.4545 285.958 64.6212 284.898 64.7727C282.625 65.106 280.64 65.6363 278.943 66.3636C277.246 67.0909 275.928 68.0757 274.989 69.3182C274.049 70.5303 273.58 72.0454 273.58 73.8636C273.58 76.5 274.534 78.5151 276.443 79.9091C278.383 81.2727 280.837 81.9545 283.807 81.9545Z" fill="white"/>
<path d="M334.057 0.909058H354.693L382.33 68.3636H383.42L411.057 0.909058H431.693V94H415.511V30.0454H414.648L388.92 93.7272H376.83L351.102 29.9091H350.239V94H334.057V0.909058Z" fill="white"/>
<path d="M479.784 95.3636C472.966 95.3636 467.057 93.8636 462.057 90.8636C457.057 87.8636 453.178 83.6666 450.42 78.2727C447.693 72.8788 446.33 66.5757 446.33 59.3636C446.33 52.1515 447.693 45.8333 450.42 40.4091C453.178 34.9848 457.057 30.7727 462.057 27.7727C467.057 24.7727 472.966 23.2727 479.784 23.2727C486.602 23.2727 492.511 24.7727 497.511 27.7727C502.511 30.7727 506.375 34.9848 509.102 40.4091C511.86 45.8333 513.239 52.1515 513.239 59.3636C513.239 66.5757 511.86 72.8788 509.102 78.2727C506.375 83.6666 502.511 87.8636 497.511 90.8636C492.511 93.8636 486.602 95.3636 479.784 95.3636ZM479.875 82.1818C483.572 82.1818 486.663 81.1666 489.148 79.1363C491.633 77.0757 493.481 74.3181 494.693 70.8636C495.936 67.4091 496.557 63.5606 496.557 59.3181C496.557 55.0454 495.936 51.1818 494.693 47.7272C493.481 44.2424 491.633 41.4697 489.148 39.4091C486.663 37.3485 483.572 36.3181 479.875 36.3181C476.087 36.3181 472.936 37.3485 470.42 39.4091C467.936 41.4697 466.072 44.2424 464.83 47.7272C463.617 51.1818 463.011 55.0454 463.011 59.3181C463.011 63.5606 463.617 67.4091 464.83 70.8636C466.072 74.3181 467.936 77.0757 470.42 79.1363C472.936 81.1666 476.087 82.1818 479.875 82.1818Z" fill="white"/>
<path d="M587.193 24.1818L562.33 94H544.148L519.284 24.1818H536.83L552.875 76.0454H553.602L569.693 24.1818H587.193Z" fill="white"/>
</svg>
